<svg xmlns="http://www.w3.org/2000/svg" width="228" height="26" fill="none" data-sentry-component="MyYogaTeacherLogo" data-sentry-element="svg" data-sentry-source-file="svg.jsx"><g fill="#EE731B" clip-path="url(#a)" data-sentry-element="g" data-sentry-source-file="svg.jsx"><path d="M24.503 16.385v-2.46c-.332.045-.625.111-.876.195-.518.172-.864.402-1.122.695a2.2 2.2 0 0 0-.414.724c-.142.39-.223.893-.223 1.515v3.42h4.893v-.633s-2.247-.27-2.258-3.456ZM15.734 12.643c0-3.95-2.907-7.22-6.699-7.789l-.007.014a7.946 7.946 0 0 0-1.215-.101A7.877 7.877 0 0 0 0 12.113h6.464v.002l.033-.001a2.975 2.975 0 0 1 2.974 2.928h.004v1.343c-.01 3.186-2.259 3.456-2.259 3.456v.633h8.52V12.9h-.006a9.26 9.26 0 0 0 .004-.258Z" data-sentry-element="path" data-sentry-source-file="svg.jsx"/><path d="M23.333 12.362c.696-.193 1.474-.278 2.351-.278h7.977a7.856 7.856 0 0 0-2.184-4.907 7.846 7.846 0 0 0-5.625-2.366 7.841 7.841 0 0 0-4.693 1.553l-.033.023-.002-.002a.884.884 0 0 1-1.011-1.441v-.001l.007-.006c.026-.022.053-.04.08-.06a9.632 9.632 0 0 1 3.276-1.537A8.831 8.831 0 0 0 16.784.281a8.825 8.825 0 0 0-6.634 2.993c4.215 1.031 7.352 4.84 7.352 9.368v.028h.002v7.803h2.598v-3.42c0-.867.124-1.653.419-2.35a3.836 3.836 0 0 1 1.4-1.707 4.81 4.81 0 0 1 1.412-.634ZM186.585 2.38c0 .216.06.3.229.3.398 0 .941.665 1.086 1.328.169.76.181 12.875.012 13.563-.132.615-.458 1.05-.941 1.279-.205.096-.386.277-.386.386 0 .205.217.217 2.896.217h2.896v-9.134l.35-.47c.41-.58.856-.894 1.387-.978.507-.085.857.108 1.122.603.194.35.218.869.254 5.177l.036 4.802h3.017c2.787 0 3.004-.012 3.004-.217 0-.109-.181-.29-.386-.386a1.873 1.873 0 0 1-.627-.52c-.242-.325-.254-.566-.326-3.92-.085-3.898-.169-4.465-.821-5.636-.82-1.472-2.799-2.123-4.718-1.556-.784.23-1.11.422-1.773 1.062l-.519.482V4.334l-.905-1.122-.917-1.134h-3.97v.301ZM42.271 2.355c0 .085.278.796.603 1.58l.604 1.425v6.117c0 5.768-.025 6.13-.242 6.613-.156.361-.362.579-.651.724-.266.12-.435.29-.435.422 0 .193.121.217 1.267.217h1.267l.024-5.575.037-5.574 2.353 5.538 2.365 5.55 1.254.037 1.267.024 2.474-6.033 2.474-6.045.036 6.033.024 6.045h2.836c2.654 0 2.835-.012 2.835-.217 0-.133-.169-.302-.422-.422-.254-.121-.507-.375-.664-.676-.23-.47-.241-.676-.241-7.204 0-6.504.012-6.745.241-7.227.157-.314.41-.592.664-.737.29-.156.422-.313.422-.494v-.278h-4.899L55.11 8.786l-2.667 6.577-2.365-5.828c-1.291-3.21-2.486-6.154-2.643-6.552l-.29-.724-2.437-.037c-1.942-.024-2.437 0-2.437.133ZM76.661 2.307c0 .06 1.364 2.353 3.017 5.092l3.016 4.995v7.059h2.896c2.679 0 2.896-.012 2.896-.217 0-.109-.18-.29-.386-.386-.483-.23-.808-.664-.941-1.28-.06-.253-.12-1.52-.12-2.81v-2.342l3.136-5.031c1.726-2.763 3.138-5.068 3.138-5.116 0-.037-1.388-.073-3.077-.073-1.69 0-3.077.024-3.077.048 0 .037.543.905 1.206 1.943.664 1.038 1.207 1.943 1.207 2.015 0 .217-3.077 5.032-3.161 4.947-.218-.229-3.837-6.48-3.958-6.83-.157-.494.06-1.133.483-1.435.193-.133.24-.253.18-.434-.072-.254-.132-.254-3.27-.254-1.81 0-3.185.048-3.185.109ZM132.406 5.335c0 1.726.036 3.138.097 3.138.048 0 1.001-1.147 2.136-2.534l2.039-2.534h1.037l-.024 7.288c-.036 7.155-.036 7.3-.289 7.638a1.887 1.887 0 0 1-.628.519c-.205.096-.386.277-.386.386 0 .205.254.217 3.56.217s3.559-.012 3.559-.217c0-.109-.181-.29-.386-.386-.483-.23-.808-.664-.941-1.28-.06-.253-.121-3.547-.121-7.324V3.405l.579.012h.568l2.051 2.534c1.122 1.387 2.087 2.522 2.136 2.522.06 0 .096-1.412.096-3.138V2.198h-15.083v3.137ZM115.235 6.024c-.048.036-.084.53-.084 1.086V8.11l-.459-.23c-.253-.132-.845-.361-1.303-.518-1.195-.398-3.222-.398-4.513 0-2.691.845-4.488 2.594-4.959 4.827-.193.965-.085 2.69.241 3.547.338.88 1.171 2.015 1.81 2.462.266.193.495.386.495.422 0 .036-.121.12-.266.193-.518.241-1.375 1.098-1.713 1.726-.905 1.665-.326 4.006 1.231 4.922.495.278.7.326 1.532.326 1.641 0 2.426-.543 4.344-3.016 1.255-1.617 1.726-2.064 2.317-2.184.289-.06.434-.012.639.193.7.7-.362 2.268-3.077 4.549l-.603.507h3.101l3.101.012.254-.35c.446-.64.615-1.219.615-2.112 0-1.544-.531-2.498-1.75-3.089-1.46-.712-2.811-.615-6.286.447-2.486.76-3.548.917-3.922.579-.132-.12-.241-.338-.241-.483 0-.386.471-1.026 1.038-1.424l.482-.338.966.326c1.158.398 2.859.447 4.211.12 1.387-.325 2.968-1.182 3.921-2.123 2.257-2.232 2.426-5.659.374-7.988l-.494-.555 1.448-1.351c.796-.748 1.448-1.412 1.448-1.46 0-.12-3.777-.145-3.898-.024Zm-4.851 2.8c1.967.904 3.801 4.319 3.801 7.082 0 1.074-.144 1.713-.47 2.112-.35.434-1.484.47-2.353.072-1.472-.676-2.739-2.643-3.234-4.995-.362-1.762-.169-3.584.471-4.284.253-.29 1.146-.277 1.785.012Z" data-sentry-element="path" data-sentry-source-file="svg.jsx"/><path d="M94.517 7.302c-2.655.797-4.356 2.679-4.73 5.25-.519 3.523 1.629 6.479 5.128 7.106 2.872.507 6.033-.917 7.288-3.294.688-1.291.953-3.234.628-4.633-.483-2.076-2.39-3.934-4.646-4.513-1.074-.278-2.57-.242-3.668.084Zm1.653 1.774c1.11.64 2.172 2.28 2.715 4.187.205.724.265 1.267.277 2.329 0 2.123-.24 2.558-1.387 2.558-2.088 0-4.006-3.246-4.03-6.842-.012-1.351.132-2.063.494-2.413.302-.314 1.22-.23 1.931.181ZM120.159 9.825c.049 1.545.097 2.824.109 2.824 0 .012 1.182-1.05 2.606-2.377 2.196-2.016 2.655-2.39 2.969-2.402.772 0 1.484.978 1.496 2.064 0 1.17-1.002 1.979-3.958 3.21-1.038.434-2.172.977-2.522 1.206-2.003 1.327-1.725 4.018.507 4.995 1.713.76 3.837.17 5.478-1.508l.531-.543.845 1.086.844 1.074h1.967c1.81 0 1.979-.024 1.979-.217 0-.109-.157-.29-.35-.41-.784-.435-.784-.471-.857-4.803-.06-3.777-.084-3.945-.35-4.549-.506-1.146-1.653-1.906-3.414-2.28-1.207-.266-3.5-.17-5.068.193l-1.171.277-.736-.314c-.41-.18-.796-.325-.868-.325-.085 0-.097.893-.037 2.8Zm7.18 4.428v2.16l-.447.29c-.639.386-1.532.386-1.858-.012-.326-.398-.302-1.207.06-1.919.242-.47 2.052-2.678 2.196-2.678.025 0 .049.977.049 2.16ZM151.242 7.157c-3.162.616-5.406 2.715-5.828 5.43-.35 2.341.687 4.61 2.703 5.949 3.089 2.063 8.217 1.134 10.28-1.846.326-.459.326-.483.133-.785l-.205-.301-.447.362c-.929.736-2.485 1.098-3.777.844-1.073-.193-2.003-.7-2.823-1.508-.941-.941-1.255-1.713-1.255-3.089v-.965h8.808v-.338c0-.93-1.158-2.425-2.377-3.077-1.315-.7-3.571-1.001-5.212-.676Zm2.377.833c.398.241.869 1.074 1.037 1.834l.073.338h-4.477l.085-.278c.507-1.653 2.135-2.594 3.282-1.894ZM160.04 9.885v2.86l.399-.362c3.632-3.391 4.935-4.513 5.224-4.513.76 0 1.388.784 1.557 1.93.072.483.036.604-.29 1.05-.639.881-1.556 1.448-3.632 2.269-2.558 1.001-3.595 1.797-3.849 2.944-.301 1.436.35 2.654 1.798 3.318.772.35 2.486.338 3.294-.024.76-.338 1.484-.857 2.16-1.508l.543-.531.833 1.074.82 1.061h2.027c1.846 0 2.027-.024 2.027-.217 0-.108-.181-.29-.398-.386-.241-.12-.482-.374-.651-.724-.266-.519-.278-.64-.278-4.102 0-4.175-.06-4.513-.917-5.43-.627-.664-1.569-1.134-2.848-1.4-1.206-.265-3.511-.169-5.031.193l-1.134.266-.773-.314a14.27 14.27 0 0 0-.82-.314c-.036 0-.061 1.291-.061 2.86Zm7.095 6.528c-.205.241-1.049.615-1.387.627-.748 0-1.207-.603-1.086-1.412.12-.712.555-1.423 1.593-2.558l.965-1.062.036 2.112c.024 1.569-.012 2.148-.121 2.293ZM179.416 7.158c-1.955.265-4.079 1.34-5.044 2.57-2.45 3.065-1.569 7.373 1.834 9.038 1.291.627 2.256.856 3.68.844.99 0 1.376-.06 2.148-.325 1.557-.531 2.727-1.4 3.475-2.583l.35-.555-.253-.265-.254-.266-.241.242c-.64.64-2.51 1.025-3.898.808-.989-.169-2.051-.772-2.666-1.52-1.593-1.955-1.557-5.128.072-6.588.785-.712 1.895-.99 2.86-.736.145.048 1.001.989 1.991 2.208l1.725 2.123.037-2.522c.012-1.387.012-2.546-.013-2.57-.036-.024-.313.06-.639.181-.543.218-.676.218-1.557.085-1.472-.242-2.69-.29-3.607-.17ZM207.432 7.145c-2.727.495-4.851 2.148-5.659 4.417-.338.94-.362 2.582-.06 3.607.313 1.062.627 1.593 1.375 2.39 1.376 1.435 2.969 2.075 5.153 2.063 1.52-.012 2.461-.217 3.764-.845.929-.434 2.148-1.472 2.582-2.172.242-.386.242-.434.061-.712l-.205-.301-.459.362c-1.798 1.448-4.766 1.182-6.528-.591-.953-.954-1.231-1.617-1.303-3.005l-.048-1.11h8.953l-.085-.398c-.205-1.086-1.254-2.438-2.328-2.98-1.135-.58-1.822-.749-3.258-.785-.76-.024-1.641 0-1.955.06Zm2.317.87c.422.289.893 1.085 1.025 1.749l.085.398h-2.244c-1.231 0-2.245-.024-2.245-.048 0-.025.097-.29.229-.58.64-1.496 2.124-2.208 3.15-1.52ZM224.327 7.218c-1.001.23-1.786.676-2.606 1.436-.724.663-.724.663-.833.362-.048-.157-.362-.652-.7-1.086l-.603-.773-2.015-.012h-2.027v.278c0 .205.096.302.386.386.555.169.905.76 1.002 1.665.048.41.06 2.425.036 4.489-.036 3.511-.048 3.764-.278 4.163-.145.229-.458.53-.7.663-.253.133-.446.338-.446.447 0 .205.217.217 2.896.217h2.896v-8.88l.7-.664c.808-.785 1.206-1.074 1.496-1.074.121 0 .676.603 1.375 1.508.652.832 1.219 1.472 1.255 1.424.121-.145 1.11-4.392 1.038-4.465-.121-.12-1.002-.265-1.581-.265-.325 0-.917.084-1.291.18ZM63.542 7.23c-.422.024-.76.085-.76.12 0 .037 1.557 3.138 3.451 6.879l3.451 6.817-.205.47c-.193.423-.302.495-.88.664-.46.133-.93.181-1.449.133l-.772-.06-.953-.942-.953-.953v1.46c0 .809-.037 2.04-.085 2.763l-.072 1.304.7-.097c2.027-.253 3.86-1.351 4.97-2.968.363-.519 7.518-15.336 7.518-15.566 0-.06-1.243-.108-3.077-.108-1.69 0-3.077.024-3.077.048 0 .012.543 1.158 1.207 2.522l1.207 2.486-.93 2.05c-.518 1.135-.965 2.064-1.001 2.064-.109 0-2.92-6.033-3.04-6.528-.158-.579.047-1.315.494-1.786.23-.253.326-.458.29-.615-.06-.23-.157-.241-2.68-.217-1.435.012-2.943.036-3.354.06Z" data-sentry-element="path" data-sentry-source-file="svg.jsx"/></g><defs data-sentry-element="defs" data-sentry-source-file="svg.jsx"><clipPath id="a" data-sentry-element="clipPath" data-sentry-source-file="svg.jsx"><path fill="#fff" d="M0 0h228v26H0z" data-sentry-element="rect" data-sentry-source-file="svg.jsx"/></clipPath></defs></svg>